# AST/ASF file generated using VICON BodyLanguage
# -----------------------------------------------
:version 1.10
:name VICON
:units
  mass 1.0
  length 0.45
  angle deg
:documentation
   .ast/.asf automatically generated from VICON data using
   VICON BodyBuilder and BodyLanguage model FoxedUp or BRILLIANT.MOD
:root
   order TX TY TZ RX RY RZ
   axis XYZ
   position 0 0 0  
   orientation 0 0 0 
:bonedata
  begin
     id 1 
     name lhipjoint
     direction 0.567725 -0.736092 0.368589 
     length 2.42353 
     axis 0 0 0  XYZ
  end
  begin
     id 2 
     name lfemur
     direction 0.34202 -0.939693 0  
     length 7.24894  
     axis 0 0 20  XYZ
    dof rx ry rz
    limits (-160.0 20.0)
           (-70.0 70.0)
           (-60.0 70.0)
  end
  begin
     id 3 
     name ltibia
     direction 0.34202 -0.939693 0   
     length 7.6997   
     axis 0 0 20   XYZ
    dof rx
    limits (-10.0 170.0)
  end
  begin
     id 4 
     name lfoot
     direction 0.100767 -0.276854 0.955614   
     length 2.37556   
     axis -90 7.62852e-016 20   XYZ
    dof rx rz
    limits (-45.0 90.0)
           (-70.0 20.0)
  end
  begin
     id 5 
     name ltoes
     direction 1.53592e-011 -4.21894e-011 1   
     length 1.18363   
     axis -90 7.62852e-016 20   XYZ
    dof rx
    limits (-90.0 20.0)
  end
  begin
     id 6 
     name rhipjoint
     direction -0.556459 -0.742938 0.372017   
     length 2.4012  
     axis 0 0 0  XYZ 
  end
  begin
     id 7 
     name rfemur
     direction -0.34202 -0.939693 0   
     length 7.5119   
     axis 0 0 -20   XYZ
    dof rx ry rz
    limits (-160.0 20.0)
           (-70.0 70.0)
           (-70.0 60.0)
  end
  begin
     id 8 
     name rtibia
     direction -0.34202 -0.939693 0   
     length 7.50155   
     axis 0 0 -20   XYZ
    dof rx
    limits (-10.0 170.0)
 end
 begin
     id 9 
     name rfoot
     direction -0.118427 -0.325376 0.938139   
     length 2.32487  
     axis -90 -7.62852e-016 -20   XYZ
    dof rx rz
    limits (-45.0 90.0)
           (-20.0 70.0)
  end
  begin
     id 10 
     name rtoes
     direction -1.53525e-011 -4.21868e-011 1   
     length 1.15233   
     axis -90 -7.62852e-016 -20   XYZ
    dof rx
    limits (-90.0 20.0)
  end
  begin
     id 11 
     name lowerback
     direction 0.0287568 0.999577 -0.00434502   
     length 2.15243   
     axis 0 0 0   XYZ
    dof rx ry rz
    limits (-20.0 45.0)
           (-30.0 30.0)
           (-30.0 30.0)
  end
  begin
     id 12 
     name upperback
     direction 0.0294009 0.99956 0.00404628   
     length 2.15427   
     axis 0 0 0   XYZ
    dof rx ry rz
    limits (-20.0 45.0)
           (-30.0 30.0)
           (-30.0 30.0)
  end
  begin
     id 13 
     name thorax
     direction 0.0151014 0.999868 0.0059419   
     length 2.14898   
     axis 0 0 0   XYZ
    dof rx ry rz
    limits (-20.0 45.0)
           (-30.0 30.0)
           (-30.0 30.0)
  end
  begin
     id 14 
     name lowerneck
     direction -0.0249197 0.989906 0.139515   
     length 1.6861   
     axis 0 0 0   XYZ
    dof rx ry rz
    limits (-20.0 45.0)
           (-30.0 30.0)
           (-30.0 30.0)
  end
  begin
     id 15 
     name upperneck
     direction 0.0438463 0.988795 -0.142693   
     length 1.71276   
     axis 0 0 0   XYZ
    dof rx ry rz
    limits (-20.0 45.0)
           (-30.0 30.0)
           (-30.0 30.0)
  end
  begin
     id 16
     name head
     direction 0.0148499 0.997845 -0.0639186  
     length 1.7209  
     axis 0 0 0   XYZ
    dof rx ry rz
    limits (-20.0 45.0)
           (-30.0 30.0)
           (-30.0 30.0)
  end
  begin
     id 17 
     name lclavicle
     direction 0.940298 0.323464 -0.105876  
     length 3.9048  
     axis 0 0 0   XYZ
    dof ry rz
    limits (-20.0 10.0)
           (0.0 20.0)
  end
  begin
     id 18 
     name lhumerus
     direction 1 -4.48954e-011 -4.9675e-028   
     length 4.6851   
     axis 180 -30 -90   XYZ
    dof rx ry rz
    limits (-60.0 90.0)
           (-90.0 90.0)
           (-90.0 90.0)
  end
  begin
     id 19
     name lradius
     direction 1 -4.48992e-011 -1.03359e-026   
     length 3.39626   
     axis 180 -30 -90   XYZ
    dof rx
    limits (-10.0 170.0)
  end
  begin
     id 20
     name lwrist
     direction 1 -4.48906e-011 -1.67336e-026   
     length 1.69813   
     axis 9.90442e-015 90 90   XYZ
    dof ry
    limits (-180.0 0.0)
 end
  begin
     id 21 
     name lhand
     direction 1 -4.49006e-011 -3.34673e-026   
     length 0.486078   
     axis 2.1355e-014 90 90   XYZ
    dof rx rz
    limits (-90.0 90.0)
           (-45.0 45.0)
  end
  begin
     id 22 
     name lfingers
     direction 1 -4.48992e-011 -6.69345e-026   
     length 0.391889   
     axis 4.27099e-014 90 90   XYZ
    dof rx
    limits (0.0 90.0)
  end
  begin
     id 23
     name lthumb
     direction 0.707107 -6.34926e-011 0.707107   
     length 0.562676   
     axis -90 45 2.85299e-015   XYZ
    dof rx rz
    limits (-45.0 45.0)
           (-45.0 45.0)
  end
  begin
     id 24 
     name rclavicle
     direction -0.882459 0.414895 -0.221648   
     length 3.44646  
     axis 0 0 0   XYZ 
    dof ry rz
    limits (-10.0 20.0)
           (-20.0 0.0)
  end
  begin
     id 25 
     name rhumerus
     direction -1 -4.48962e-011 -2.37984e-027  
     length 5.55576   
     axis 180 30 90   XYZ
    dof rx ry rz
    limits (-90.0 60.0)
           (-90.0 90.0)
           (-90.0 90.0)
  end
  begin
     id 26 
     name rradius
     direction -1 -4.48982e-011 -6.86791e-027   
     length 3.32774   
     axis 180 30 90   XYZ
    dof rx
    limits (-10.0 170.0)
  end
  begin
     id 27 
     name rwrist
     direction -1 -4.48961e-011 -1.67336e-026   
     length 1.66387   
     axis 9.90442e-015 -90 -90   XYZ
    dof ry
    limits (-180.0 0.0)
  end
  begin
     id 28
     name rhand
     direction -1 -4.4897e-011 -3.34673e-026   
     length 0.507628   
     axis 2.1355e-014 -90 -90   XYZ
    dof rx rz
    limits (-90.0 90.0)
           (-45.0 45.0)
  end
  begin
     id 29
     name rfingers
     direction -1 -4.48854e-011 -6.69345e-026   
     length 0.409263   
     axis 4.27099e-014 -90 -90   XYZ
    dof rx
    limits (0.0 90.0)
  end
  begin
     id 30
     name rthumb
     direction -0.707107 -6.34913e-011 0.707107   
     length 0.587622   
     axis -90 -45 -2.85299e-015   XYZ
    dof rx rz
    limits (-45.0 45.0)
           (-45.0 45.0)
  end
:hierarchy
  begin
    root lhipjoint rhipjoint lowerback
    lhipjoint lfemur
    lfemur ltibia
    ltibia lfoot
    lfoot ltoes
    rhipjoint rfemur
    rfemur rtibia
    rtibia rfoot
    rfoot rtoes
    lowerback upperback
    upperback thorax
    thorax lowerneck lclavicle rclavicle
    lowerneck upperneck
    upperneck head
    lclavicle lhumerus
    lhumerus lradius
    lradius lwrist
    lwrist lhand lthumb
    lhand lfingers
    rclavicle rhumerus
    rhumerus rradius
    rradius rwrist
    rwrist rhand rthumb
    rhand rfingers
  end

#!OML:ASF E:\motion texture\Top Level 1\Subject 1\Session 1\male.ASF
:FULLY-SPECIFIED
:DEGREES
34
root 43.0267 17.8865 6.23666 106.605 -84.4016 -100.768
lowerback -3.35872 -2.77583 0.426007
upperback -3.25552 -3.81856 4.79132
thorax -1.16914 -1.93477 4.61029
lowerneck -9.39421 -10.5751 -15.5949
upperneck 29.7818 -17.8996 12.7989
head 14.4523 -8.7038 4.67111
rclavicle -5.35476e-014 -3.97569e-015
rhumerus -35.7471 33.1162 -94.4006
rradius 33.2809
rwrist 2.54355
rhand -13.1271 -31.3778
rfingers 7.12502
rthumb 12.9707 -60.9546
lclavicle -5.35476e-014 -3.97569e-015
lhumerus 45.4634 -68.4451 54.0456
lradius 116.876
lwrist -10.0106
lhand -23.7809 23.1332
lfingers 7.12502
lthumb 2.68895 53.096
rfemur -11.4736 1.32208 25.6877
rtibia 16.1486
rfoot -6.62966 -9.12296
rtoes 15.1318
lfemur -11.7847 -2.5481 -11.7078
ltibia 14.6506
lfoot -6.3954 7.36041
ltoes 7.12837
35
root 43.0245 17.8875 6.23557 107.212 -84.3957 -101.35
lowerback -3.35623 -2.72777 0.463369
upperback -3.25678 -3.75483 4.7767
thorax -1.17998 -1.90333 4.57621
lowerneck -9.7532 -10.4097 -15.3226
upperneck 29.786 -17.5375 12.5966
head 14.4052 -8.51277 4.60301
rclavicle -2.21396e-014 2.22639e-014
rhumerus -36.0905 32.8624 -94.1674
rradius 33.1444
rwrist 2.60865
rhand -13.0863 -31.2548
rfingers 7.12502
rthumb 13.01 -60.8292
lclavicle -2.21396e-014 2.22639e-014
lhumerus 46.2855 -68.3326 53.3611
lradius 116.931
lwrist -9.93794
lhand -24.0485 23.1851
lfingers 7.12502
lthumb 2.43056 53.151
rfemur -11.4789 1.34353 25.6848
rtibia 16.1198
rfoot -6.61571 -9.07182
rtoes 15.1584
lfemur -11.768 -2.54165 -11.7102
ltibia 14.6033
lfoot -6.38565 7.40506
ltoes 7.1143
36
root 43.0221 17.8885 6.23455 107.656 -84.3908 -101.771
lowerback -3.35875 -2.67733 0.505019
upperback -3.25432 -3.68813 4.75854
thorax -1.18477 -1.87051 4.53564
lowerneck -10.1083 -10.2446 -15.0451
upperneck 29.7715 -17.1784 12.4007
head 14.3524 -8.32209 4.53579
rclavicle 4.12478e-015 1.59028e-014
rhumerus -36.4421 32.6419 -93.9369
rradius 33.0364
rwrist 2.6377
rhand -13.0484 -31.1398
rfingers 7.12502
rthumb 13.0466 -60.7118
lclavicle 4.12478e-015 1.59028e-014
lhumerus 47.1048 -68.2344 52.6809
lradius 116.996
lwrist -9.77889
lhand -24.2607 23.0986
lfingers 7.12502
lthumb 2.22557 53.0668
rfemur -11.4811 1.3612 25.6836
rtibia 16.0897
rfoot -6.60345 -9.03139
rtoes 15.1837
lfemur -11.7522 -2.53964 -11.7113
ltibia 14.5558
lfoot -6.37387 7.43928
ltoes 7.09967
37
root 43.0195 17.8895 6.23359 107.945 -84.3877 -102.036
lowerback -3.3605 -2.62559 0.547176
upperback -3.25092 -3.61966 4.73926
thorax -1.18911 -1.8368 4.49369
lowerneck -10.4615 -10.0808 -14.7594
upperneck 29.7402 -16.8219 12.2029
head 14.2936 -8.13199 4.4655
rclavicle 8.54774e-015 4.29375e-014
rhumerus -36.8047 32.4674 -93.7141
rradius 32.9523
rwrist 2.62216
rhand -13.0141 -31.0337
rfingers 7.12502
rthumb 13.0796 -60.6036
lclavicle 8.54774e-015 4.29375e-014
lhumerus 47.9028 -68.1503 52.0253
lradius 117.07
lwrist -9.5291
lhand -24.4656 23.0439
lfingers 7.12502
lthumb 2.02773 53.014
rfemur -11.4807 1.37571 25.6836
rtibia 16.0585
rfoot -6.59312 -9.00261
rtoes 15.2084
lfemur -11.7385 -2.54241 -11.7115
ltibia 14.5092
lfoot -6.36128 7.46459
ltoes 7.08245
38
root 43.0167 17.8905 6.23269 108.074 -84.387 -102.143
lowerback -3.3517 -2.57452 0.587135
upperback -3.25706 -3.55152 4.72187
thorax -1.20879 -1.80309 4.45583
lowerneck -10.7978 -9.91258 -14.4753
upperneck 29.6988 -16.4613 12.0012
head 14.2282 -7.94198 4.3953
rclavicle 4.06763e-014 -1.35174e-014
rhumerus -37.2067 32.3426 -93.5075
rradius 32.9039
rwrist 2.56445
rhand -12.981 -30.9339
rfingers 7.12502
rthumb 13.1115 -60.5017
lclavicle 4.06763e-014 -1.35174e-014
lhumerus 48.6248 -68.0896 51.4458
lradius 117.151
lwrist -9.197
lhand -24.6379 22.9497
lfingers 7.12502
lthumb 1.86131 52.9214
rfemur -11.4777 1.38614 25.6842
rtibia 16.0266
rfoot -6.58464 -8.98469
rtoes 15.2351
lfemur -11.7264 -2.54973 -11.7117
ltibia 14.4635
lfoot -6.34753 7.47981
ltoes 7.06574
